<?xml version="1.0" encoding="UTF-8" standalone="no"?>
<!-- Created with Inkscape (http://www.inkscape.org/) -->

<svg
   width="10.305726mm"
   height="16.488899mm"
   viewBox="0 0 10.305726 16.488899"
   version="1.1"
   id="svg1"
   inkscape:export-filename="bitmap.svg"
   inkscape:export-xdpi="96"
   inkscape:export-ydpi="96"
   sodipodi:docname="navbar-nouser.svg"
   inkscape:version="1.3.2 (091e20e, 2023-11-25, custom)"
   xmlns:inkscape="http://www.inkscape.org/namespaces/inkscape"
   xmlns:sodipodi="http://sodipodi.sourceforge.net/DTD/sodipodi-0.dtd"
   xmlns="http://www.w3.org/2000/svg"
   xmlns:svg="http://www.w3.org/2000/svg">
  <sodipodi:namedview
     id="namedview1"
     pagecolor="#ffffff"
     bordercolor="#000000"
     borderopacity="0.25"
     inkscape:showpageshadow="2"
     inkscape:pageopacity="0.0"
     inkscape:pagecheckerboard="0"
     inkscape:deskcolor="#d1d1d1"
     inkscape:document-units="mm"
     inkscape:zoom="11.858104"
     inkscape:cx="19.522514"
     inkscape:cy="31.160125"
     inkscape:window-width="1920"
     inkscape:window-height="974"
     inkscape:window-x="-11"
     inkscape:window-y="-11"
     inkscape:window-maximized="1"
     inkscape:current-layer="layer2" />
  <defs
     id="defs1" />
  <g
     inkscape:groupmode="layer"
     id="layer2"
     inkscape:label="user"
     style="display:inline"
     transform="translate(-118.95504,-10.716448)">
    <path
       id="path5"
       style="display:inline;fill:#000000;stroke:#000000;stroke-width:1.67425;stroke-linecap:round;stroke-linejoin:round;stroke-dasharray:none;stroke-opacity:1;fill-opacity:0"
       d="m 124.10767,18.75215 c -2.38338,1.88e-4 -4.3154,0.270157 -4.3155,6.995955 0.003,0.207199 0.0109,0.414109 0.0248,0.620117 h 8.58138 c 0.0141,-0.205996 0.0225,-0.412906 0.0253,-0.620117 -1.1e-4,-6.768846 -1.93244,-6.996232 -4.31602,-6.995955 z m 2.29893,-4.8997 c 0,1.269632 -1.02924,2.298874 -2.29887,2.298878 -1.26964,1e-6 -2.29888,-1.029242 -2.29888,-2.298878 0,-1.269636 1.02924,-2.298878 2.29888,-2.298877 1.26963,4e-6 2.29887,1.029245 2.29887,2.298877 z"
       sodipodi:nodetypes="cccccccsssss" />
  </g>
</svg>
