<?xml version="1.0" encoding="UTF-8"?>
<svg version="1.1" viewBox="0 0 1000 1000" width="1280" height="1280" xmlns="http://www.w3.org/2000/svg">
<path transform="translate(0)" d="m0 0h1e3v1e3h-1e3z" fill="#016266"/>
<path transform="translate(501,168)" d="m0 0h18l22 2 26 5 17 5 15 6 23 11 19 12 14 11 14 12 13 14 7 9 13 19 10 17 9 20 7 21 6 26 2 15 1 13v19l-3 28-4 18-6 20-6 15-8 16-9 16-10 14-9 11-12 13-11 10-17 13h-2v75l-2 13-6 10-7 6-10 4h-206l-9-2-9-5-7-8-2-5-1-6-1-80-4-4-14-11-16-15-9-9-13-17-10-15-11-21-8-20-5-18-4-20-2-14v-41l3-23 5-21 7-21 12-25 8-14 10-14 9-11 12-13 7-7 11-9 9-7 10-7 17-10 21-10 24-8 23-5z" fill="#016266"/>
<path transform="translate(501,168)" d="m0 0h18l22 2 26 5 17 5 15 6 23 11 19 12 14 11 14 12 13 14 7 9 13 19 10 17 9 20 7 21 6 26 2 15 1 13v19l-3 28-4 18-6 20-6 15-8 16-9 16-10 14-9 11-12 13-11 10-17 13h-2v75l-2 13-6 10-7 6-10 4h-206l-9-2-9-5-7-8-2-5-1-6-1-80-4-4-14-11-16-15-9-9-13-17-10-15-11-21-8-20-5-18-4-20-2-14v-41l3-23 5-21 7-21 12-25 8-14 10-14 9-11 12-13 7-7 11-9 9-7 10-7 17-10 21-10 24-8 23-5zm1 65-24 3-22 6-15 6-17 9-14 10-13 11-8 8-11 14-9 14-9 19-8 26-3 19-1 12v12l2 19 4 19 6 18 8 17 9 14 8 10 9 10 7 7 14 11 19 12 11 6v76l1 1h127l2-1 1-76 19-11 16-11 10-9 6-5 7-8 8-10 11-17 9-20 5-17 4-20 1-13v-15l-3-24-5-21-6-16-11-21-10-14-14-15-11-10-15-10-16-9-17-7-22-6-23-3z" fill="#010C0C"/>
<path transform="translate(476,318)" d="m0 0h67l1 54 62 1v68l-1 1-61 1-1 67-1 1h-66l-2-1-1-67-61-1-1-1v-63l1-5 62-1v-46l1-7z" fill="#010C0C"/>
<path transform="translate(413,751)" d="m0 0h194v41l-3 9-6 8-10 6-4 1-13 1h-99l-34-1-11-4-8-6-4-7-2-9-1-11v-27z" fill="#010C0C"/>
</svg>
